<?xml version="1.0" encoding="UTF-8"?>
<svg id="expand" xmlns="http://www.w3.org/2000/svg" version="1.1" viewBox="0 0 512 512">
  <!-- Generator: Adobe Illustrator 29.6.1, SVG Export Plug-In . SVG Version: 2.1.1 Build 9)  -->
  <defs>
    <style>
      .st0 {
        fill: #fff;
      }
    </style>
  </defs>
  <path class="st0" d="M465.4,134.5c.2-1.3-.2-1.8-.5-2h-.2l-.6,3.4c0-4-1.4-6.4-1.3-10.7l.7-1.4.4-.7s.7,1.1.7,0c.2-1.3,0-2.7-.4-3.9h-.4l-.3-.2-.4-.3c.1-2.7-.6-5-.5-7.6v-1.4l-1.4-3.6.6-2.5-1.7-4.1c.2-.7.5-1.4,1-2,.2-1.8-1.3-3.4-1.2-4.5l.2-2.5c-1.6-1.2,1.2-1.8-.4-2.2,0,0,.6-1.8-1.6-6.3-2.2-4.6-2.6-4.3-2.6-4.3-.4-.7-.9-1.3-1.5-1.8-1.3-1.1-2.7.3-2.9,3.1-.1,1.6-.8,1.6-1.5,1.3-.2-.2-.3-.5-.4-.8-.1-1.1-.7.3-.6-1.2-.9-.5-1.9-1-2.9-1.3l-1-.9-1.9-.8-.3-.2c-.8,1.3-2.8-1.1-2.8-1.1,0,0,1.5-1.4-.6-1.7-1.4-.1-2.8.5-3.7,1.5-1.5.3-3.2.1-4.5-.7-1.2-.8-2.7-.8-3.8,0l-5.8.8-1.3.9v-.8l-.1-.1-.8-.3h-.9v-1.1c-.4.7-.9.4-1-.4s-.9-.8-1.2-.9c-.4-.3-.9-.6-1.3-.9h-.4c-.2.1-.5.2-.7.3-.3.2-.6-.1-1,0s-.5.3-.8.2-.9-.3-1.1,0,.4.4,0,1.1-.3.7-.6.6c-.2-.2,0-1,0-1l-.5-.2-.5.6c-.3.3-.6.5-1,.7-.5.2-.9.5-1.3.9l-.7,1c-1.1-.6-2.3-1.1-3.6-1.5v1.2l-2.9-.9-.3-.2c-.6.9-1.5,1.7-2.6,2,0,0,.6-.6.4-1.1l-.6.5c-.3.4-.4.4-.4,0v-.5l-.4.3c-.1.4-.3.7-.6,1l-.7.3-1.4.8c-.1-.2-.3-.3-.4-.5,0,0-.1,0-.1.1-.1-1.7-.2-3.3-.3-5.1l1-1.4s.7.8.7,0c.1-.9-.1-1.9-.6-2.7h-.4l-.7-.3c0-2.1,0-4.3.2-6.4l.8-1,.5-1.8.3-2.8c.2-.5.5-1,.9-1.4.1-1.1.1-1.9.2-2.6l-.2-1.5c.1-.2.1-.4.2-.6,0-.3.2-.6.2-1.1.2-.9-.3-1.3-.6-1.4h.3l-.4,2.4c-.2-2.8-1.6-4.3-1.7-7.2l.7-1,.3-.5s.7.8.7,0c.1-.9-.1-1.9-.6-2.7h-.4l-.3-.1-.4-.2c0-1.8-.7-3.3-.7-5,.9-2.9.7-5.9-.4-8.7-.7-2.6-2.3-1.8-1.1-4.5.6-1.5.8,1.2,2.3-4.1.4-1.6.9-1.1-1-2.9-1.2-.4-2.4-1-3.6-1.6-.6-1.1-2.4.3-2.1-1.2l-2.8-.4c-.3-.3-.7-.5-1.1-.7-.6-.4-1.4-.2-2,.3l-4.6-.6-3.6-.9-6.8-.8-1.1-.2c-2.7,1.3-9.8-1.1-9.8-1.1,0,0,4.8-1.4-2.4-1.7-4.3-.2-8.5.3-12.7,1.5-5.1.2-10.4,0-15.5-.8-4.4-.8-8.8-.8-13.2,0l-19.8.9-4.8.9v-1.2l-.3-.1-2.7-.3h-3v-1.3c-1.4.7-3.3.4-3.4-.4s-3-.8-3.9-.9c-.8-.1-2.7-.7-4.4-.9h-1.5c-.9,0-1.5.2-2.4.3-1.2.2-2-.1-3.3,0-.9.2-1.8.2-2.7.2-1.2-.2-2.5-.2-3.7,0-.9.3,1.2.4,0,1.1s-1.2.7-2,.6c-.8-.2,0-1,0-1l-1.6-.2-1.8.6c-1.2.3-2.4.6-3.6.7-1.5.2-3,.5-4.4.9l-2.5,1c-3.9-.6-7.9-1.2-12.2-1.7v1.2l-10.2-1-1.1-.2c-3.1,1-6.4,1.6-9.6,1.8,0,0,2-.6,1.4-1h-.1l-2.3.4c-1.1.4-1.6.4-1.6,0v-.3l-1.6.3c-.7.4-1.4.7-2.1.9l-2.4.3-5,.7c-.5-.2-1-.4-1.6-.5-1.1-.2-1.3.7-1.3.7l2.2.5c-2.5.2-5.1.3-7.7.3l-1.4-1s.7-.7,0-.7c-.8-.1-1.7.1-2.4.5v.4l-.3.7-5.7-.3-1-.8-1.6-.5-2.6-.4c-.5-.2-.9-.5-1.3-.9l-2.3-.2-1.4.2-.6-.2-1-.2c-.9-.2-1.1.3-1.2.5v.2l2.2.5c-2.5.2-3.9,1.5-6.6,1.6l-.9-.7-.4-.3s.7-.7,0-.7c-.9-.1-1.8.1-2.5.6v.4l-.1.3-.2.4c-1.8,0-3.2.9-4.9.8h-.9l-2.2,1.3-1.6-.5-2.6,1.8c-.5-.2-1-.5-1.4-.9-1.2-.1-2.1,1.4-2.8,1.4l-1.7-.1c-.1.1-.2.2-.3.3-.1-.2-.1-.3,0-.5-2.4-.6-4.8-1-7.2-1.3l-2.6-.7c-1.6-.1-3.3-.2-4.9-.2h-.8c-1.7,1.5-7.1.4-7.1.4,0,0,3.1-2.2-2.1-1.1-3.1.7-5.9,2.3-8.2,4.5-3.4,1.8-7,3.4-10.7,4.7-3.4,1.2-6.3,3.3-8.4,6.2-4.1,3.9-7.6,8.5-10.4,13.5-.5,1.3-.9,2.6-1.2,4l-1-.5-.4.3-1.3,2-1,2.5-1.1-.4c.2,1.4-.6,2.9-1.4,2.8s-1.3,1.5-1.6,2.5c-1.1-.4-2.2-.4-2.4,1.3-.3,2.6-.3,5.3,0,7.9,0,0-3.1-2-3.7,3.2-.2,1.8-.4,3.4-.6,5.2-.7,6.2-1,14.6-1.2,22.1.2,1.2.3,2.6.4,4.1.6,2.5-.6,5.2-2.9,6.5l.6,3.1c0,1.9-.2,3-.2,3,0,0-.8-1.5-1,0-.2,1.2,0,2.5.6,3.6.8,2.1.8-1.6,1.2,0,.2,2.2.3,4.5.1,6.8,0,1.6,0,3.2.2,4.8.2,2.3,0,3.8,0,5.9.1,1.6.3,2.6.3,4.3v2.7c-.2,3.2-.7,6.7-.8,8-.1,1.4,0,6.7-.8,7s-1,3.6-.3,6.1h-1.2v5.5l-.2,4.9-.1.6h-1.1l-.6,4.2.4,1.8c-.6,2.1-1.1,4.1-1.8,5.8l-1.2.7c1.3,4,2.4,8.1,3.2,12.2.3,1.8.7,4.6,1,8,0,.9.1,1.5.2,2.2.3,3.2.6,4.3.6,4.3l.6,3.1c0,1.9-.2,3-.2,3,0,0-.5-.9-.8-.5-.1.1-.1.3-.2.5-.1.5-.1,1.1,0,1.6.2.7.4,1.4.7,2,.7,2.1.8-1.6,1.1,0,.2,2.2.3,4.5.1,6.7,0,1.6,0,3.2.2,4.8.2,2.3,0,3.8.1,5.9.1,1.6.3,2.6.3,4.3v2.7c-.1,2.5-.5,5.1-.7,6.8,0,.5,0,.9-.1,1.2,0,2.1-.1,4.3-.4,6.4.2,1.1.5,2.1.7,3.3.3,1.8.7,4.6,1,8,.1,2.2.4,4.4.8,6.5l.6,3.1c0,1.9-.2,3-.2,3,0,0-.8-1.5-1,0-.2,1.2,0,2.5.6,3.6.8,2.1.8-1.6,1.2,0v.6c.1,2,.1,4.1,0,6.1,0,1.6,0,3.2.2,4.8.2,2.3,0,3.8,0,5.9.1,1.6.3,2.6.3,4.3v1.3c.2,2.2.6,4.3,1,6.4l.6,3.2c-.1,1.9-.2,3-.2,3,0,0-.8-1.5-1,0-.2,1.2,0,2.5.6,3.6.8,2.1.8-1.6,1.2,0,.2,2.2.3,4.5.1,6.7,0,1.6,0,3.2.2,4.9.2,2.3,0,3.8,0,5.9.1,1.5.3,2.6.3,4.3v2.7c-.2,3.2-.7,6.6-.8,8s0,6.8-.8,7-1,3.6-.3,6.1h-1.2v5.5l-.2,4.9-.1.6h-1.1l-.6,4.2.4,1.8c-.5,2-1.1,3.9-1.8,5.6.3,2.2.7,1,1.5,3.1.8,1.8,1.9,3.4,3.4,4.7-.3,2.6-.5,5.3-.3,8,0,5.8,0,0,.9,6.6s2.4,4.7,1.8,10.5c-.4,2.9-.3,5.9.3,8.8.1.2.3.4.3.7-.1.5-.2.9-.3,1.4l-.2,6.3c.1,9.6,1.9,19,5.3,28l2.6,4.9c2,2.8,2.8,6.4,2.3,9.8,1.1,1.3,2.3,2.6,3.6,3.8,2,2.5,3.3,3.8,3.3,3.8,0,0-2.4-1.2-.7.7,1.4,1.7,3.1,2.9,5.2,3.7,3.4,1.5-1.7-2.3.7-.9s7,4.3,9.8,5.6c2.5,1.1,5.1,2,7.8,2.4,3.4.7,5.1,1.2,7.8,1.5l5.2.4,3.2.5,9.2,1.8c1.8.3,7.8.7,8,1.4.2.8,4.1,1.3,7.2.7v1.2h6.5l5.3.3.7.1v1.2l4.6.6,2-.4c2.3.6,4.5,1.2,6.4,1.8l.8,1.2c4.5-1.3,9-2.3,13.6-3.1,1.9-.2,5.1-.6,8.8-.9l2.4-.2,4.8-.5,3.6-.6,3.3.2s-1,.5-.5.8c.2.1.3.2.5.2.6.1,1.2.1,1.8,0,.8-.2,1.5-.4,2.2-.6,2.3-.7-1.8-.8,0-1.1,2.5-.2,5-.2,7.5,0,1.8.1,3.6,0,5.3-.2h6.5l4.7-.3h3l7.5.7,1.3.1c2.4,0,4.8.2,7.1.5l3.6-.7c1.8-.2,5.1-.7,8.8-.9,5.6-.4,7.2-.7,7.2-.7l3.6-.6,3.3.2s-1.6.8,0,1c1.3.2,2.7,0,4-.6,2.3-.7-1.8-.8,0-1.2h.7c2.3-.1,4.5-.1,6.8,0,1.8.1,3.6,0,5.3-.2h6.5l4.7-.3h1.1c5.6-.4,7.2-.7,7.2-.7l3.6-.6,3.3.2s-1.6.8,0,.9c1.3.2,2.7.1,4-.6,2.3-.7-1.8-.8,0-1.2,2.5-.2,5-.2,7.5,0,1.8.1,3.6,0,5.3-.2h6.5l4.7-.3h3l8.9.8c1.6.1,7.5,0,7.7.9s4,1,6.8.3v1.4h6.1l5.3.3.7.1v1.2l4.6.6,2-.3c2.2.6,4.3,1.1,6.1,1.8,2.4-.2,1.1-.7,3.6-1.5,2-.7,3.8-1.8,5.3-3.3,2.9.4,5.9.5,8.8.4,6.4,0,0,0,7.3-.9,2.7-.4,5.4-1,8.1-1.8-.3.9-.8,1.8,0,1.5,3,2.2,7.1,2.1,10-.3.6-.3,1.1-.7,1.5-1.2.6,0,1,0,1.8-.2.4-.2.9-.4,1.3-.6,1.3.9-1.1,1.3,4.1,3.6,1.6.7,1.1,1.4,2.9-1.6.4-2,1-3.9,1.6-5.8.5-.4.5-1.1.4-1.8.9-.3,2.9,1.1,2.4.2,2.4-2.9,2.4-7.1,0-10-.2-.5-.6-1-1-1.4l.3-3.8c.5,0,1.2-.5,2.6-3.6.7-1.6,1.4-1.1-1.5-2.9h.5l.4-2.4.8-10.9.2-1.8c-.5-5.3-.1-10.6,1-15.7,0,0,1.4,7.6,1.6-3.8.2-6.7-.4-13.5-1.6-20.1-.4-8.3-.1-16.6.7-24.9.8-7,.8-14.1,0-21.1l-1.3-31.9-.9-7.6h1.1l.1-.6.3-4.3v-4.9h1.1c-.7-2.3-.4-5.2.4-5.3s.7-4.8.9-6.2l.9-7v-2.2l-.3-3.8c-.1-1.9.1-3.2,0-5.2-.1-1.4-.1-2.9,0-4.3.3-2,.3-4,.1-6-.3-1.4-.5,1.9-1.2,0s-.7-1.9-.5-3.2.9,0,.9,0l.3-2.6-.5-2.8c-.3-1.9-.5-3.9-.6-5.8-.2-3-.5-5.6-.7-7.1l-.9-3.9,2.1-19.6h-1.2l1.4-16.3.2-1.8c-.9-5.1-1.4-10.3-1.5-15.5,0,0,.5,3.3,1,2.3v-.2l-.3-3.7c-.3-1.8-.4-2.5,0-2.5h.4l-.3-2.5c-.4-1.1-.7-2.3-.9-3.5l-.2-3.9-.5-8c.2-.8.4-1.7.5-2.5.3-1.8-.6-2.1-.6-2.1l-.4,3.5v-12.4l1.1-2s.7,1.1.7,0c.2-1.3,0-2.7-.4-3.9h-.4l-.7-.5.5-9.2.8-1.5.6-2.5.5-4.1c.2-.7.5-1.4,1-2l.3-3.8-.1-2.2.2-.9.3-1.5ZM360.4,236.1l-7.7-6.4c-2-1.4-3.8-2.6-5.1-3.7l.6-1-.3-.4-2.2-2.7c-.9-.8-1.9-1.6-2.8-2.3l.4-1.2c-1.6-.4-3.2-1.6-3.1-2.5s-2.6-2.3-3.4-2.7c-1.3-.9-2.7-1.7-4.2-2.3l-1.6-.4c-.9-.1-1.8-.1-2.7,0-1.3-.1-2.5-.1-3.8,0-1,.2-2,.4-3,.5-1.4,0-2.8.3-4.1.9-.9.6,1.3,0,.2,1.2s-1.1,1.1-2,1.2-.2-1-.2-1l-1.8.4-1.7,1.4-3.4,2.7c-1.4,1.1-2.7,2.4-3.8,3.8-.7.9-1.2,1.8-1.8,2.7-3.6,2.2-7.8,6-11.2,8.6l.9.9-5.4,3.9-.7.4c-.7,2.1-1.8,4-3.2,5.6,0,0,.4-1.1,0-1.3,0-.2,0-.4.1-.7.8-3.6.8-7.4,0-11.1l-.7-16.6c-.3-1.4-.6-2.7-.9-4h1.1l.1-.3.3-2.3v-2.5h1.2c-.7-1.2-.4-2.7.4-2.8s.8-2.6.9-3.2.7-2.2.9-3.7v-1.2c0-.7-.1-1.3-.3-2-.2-1,.1-1.7,0-2.8-.2-.7-.2-1.5-.2-2.2.2-1,.2-2.1,0-3.1-.3-.7-.4,1-1.1,0s-.7-1-.6-1.7,1,0,1,0c0,0,.1-.5.2-1.4l-.6-1.5c-.3-1-.6-2-.7-3-.2-1.3-.5-2.5-.9-3.7-.3-.7-.6-1.4-1-2,.6-3.2,1.2-6.6,1.7-10.2h-1.2l1-8.5.2-.9c-1-2.6-1.6-5.3-1.8-8.1,0,0,.6,1.8,1,1.2v-.2l-.4-1.9c-.4-1-.4-1.3,0-1.3h.4l-.3-1.2c-.4-.5-.7-1.1-.9-1.8l-.2-2.1-.7-4.2c.2-.4.4-.9.5-1.3s-.1-.9-.5-1h-.2l-.5,1.8c-.2-2.1-.3-4.3-.3-6.5l1-1.1s.7.6.7,0c.1-.7-.1-1.5-.5-2h-.4l-.7-.2c0-1.6.1-3.3.3-4.8l.8-.8.5-1.3.4-2.1c.2-.4.6-.8,1-1.1,0-.6.1-1,.2-1.4,1,.3,1.9.7,2.3.7.4.1,2.4.1,2.5.9s1.3,1,2.2.4v1.2h2l1.8.3.1.1v1.2l1.5.6.7-.3c.8.6,1.5,1.2,2.1,1.9l.3,1.2c1.3-1.2,2.8-2.2,4.4-3,.9-.4,1.9-.7,2.9-.9l.8-.2c.5-.1,1.1-.3,1.6-.5l1.1-.6,1.1.2s-.3.5-.2.8c0,.1.1.1.2.2.3.1.4.1.6,0,.3-.1.5-.3.7-.5.7-.7-.6-.9,0-1.2.8-.2,1.7-.2,2.5,0,.6.1,1.2,0,1.8-.2.8-.2,1.4.1,2.1,0,.5-.1,1-.2,1.5-.3h1c.8.2,1.6.4,2.4.8l.4.1c.4,0,1.5,0,1.9.5l1-.7c.8-.3,1.6-.6,2.5-.8.7-.1,1.4-.3,2.1-.6l1-.5.9.3s-.5.7,0,1q.5.2,1.2-.5c.7-.7-.4-.9,0-1.1h.2c.7-.1,1.4,0,2,.2.5.1,1.1.1,1.6,0,.8-.1,1.3.2,2,.2.5-.1,1-.1,1.5-.1h.3c.8-.1,1.6-.2,2.3-.5l1.1-.5,1,.3s-.6.7-.1,1q.5.2,1.3-.4c.8-.7-.5-.9.1-1.1.8-.1,1.6,0,2.4.2.3.1.7.1,1,0,.7,1.7,1.3,3.5,1.9,5.3.3,1.3.7,3.5,1,5.9,0,.6.2,1.1.2,1.6.1,1.1.3,2.2.6,3.2l.6,2.3c0,1.4-.2,2.2-.2,2.2,0,0-.5-.7-.8-.3-.1.1-.1.2-.2.4-.1.4-.1.8,0,1.2.2.5.4,1,.6,1.4.8,1.6.8-1.2,1.2,0,.2,1.7.2,3.4,0,5,0,1.2,0,2.4.2,3.6.2,1.8-.1,2.8,0,4.4.1,1.2.3,2,.3,3.2v2c-.1,1.8-.5,3.8-.7,5.1,0,.4-.1.7-.1.9,0,1.6-.1,3.2-.5,4.8.2.8.5,1.6.8,2.4.3,1.3.7,3.4,1,5.9.1,1.6.4,3.3.8,4.9l.6,2.3c0,1.4-.2,2.2-.2,2.2,0,0-.8-1.1-1,0s-.2,1.1.6,2.7.8-1.2,1.1,0v.5c.1,1.5.1,3.1,0,4.6,0,1.2,0,2.4.2,3.6.2,1.8,0,2.8.1,4.4.1,1.2.3,2,.3,3.2v.8c.1,1.6.4,3.3.8,4.9l.6,2.3c0,1.4-.2,2.2-.2,2.2,0,0-.8-1.1-1,0s-.2,1.1.6,2.7c.8,1.5.8-1.2,1.2,0,.2,1.7.2,3.4,0,5,0,1.2,0,2.4.2,3.6.2,1.8-.1,2.8,0,4.4.1,1.2.3,2,.3,3.2v2c-.2,2.4-.7,5-.8,6,0,.5,0,1.5-.1,2.5-.1-.3-.6-.7-1.2-1.2l.3-.6ZM393.2,77.1h-.4v-.2l.4.2ZM103.2,55.8c.2-.2.2-.4.3-.8s.5-.5.5-.9c.1-.3.1-.6.3-.8v-.1c.2-.4.3-.9.2-1.4v-.9l.6-.3s.3.8.7.7.3,0,.2-.9-.8-.4-.8-.8.8-.8,1.2-1,.5-.4.8-.8c.4-.5.8-.4,1.2-.8.3-.3.6-.6.9-.9l.6-.3c.7-.1,1.5-.2,2.2-.2.4,0,1.6-.7,2,0s1.3.6,1.6-.3l.4,1.1,1.3-.5,1.3-.1h.2l.4,1.2,1.2.3.3-.4c.6.4,1.2.8,1.8,1.4.4-.3,0-.7.4-1.6.3-1.2.4-2.4.4-3.6.7.2,1.4.2,2.1,0,1.4-.2,0,0,1.6-1,1.6-1,1-2.4,2.6-1.9.8.4,1.6.3,2.3-.2.3-.5.6-1,1-1.4.3-.3.5-.5.7-.8.5.6,1.2,1,1.9,1.1l3.4.6c4.8.6,9.6,1,14.5,1.1.9-.2,1.8-.3,2.7-.4,2-.2,3.8,1,4.3,3l2.1-.6,2,.2s-1,.8,0,1,1,.2,2.4-.6c1.4-.7-1-.8,0-1.2,1.5-.2,3-.2,4.6,0,1.1.1,2.2,0,3.3-.2,1.6-.1,2.6.2,4,0,1-.1,1.8-.2,2.9-.3h1.8c2.2.2,4.5.8,5.3.9.9.1,4.6,0,4.7.9s2.4,1,4.1.4v1.4h3.7l3.3.3.4.1v1.2l2.8.6,1.2-.3c1.3.5,2.7,1.1,3.9,1.8l.5,1.2c2.7-1.3,5.4-2.3,8.3-3.1,1.2-.2,3.1-.6,5.3-.9l1.5-.2c1-.1,2-.3,2.9-.5l2.1-.6,2,.2s-.6.5-.3.8c.1.1.2.2.3.2.4.1.7.1,1.1,0,.5-.2.9-.4,1.4-.6,1.4-.7-1-.8,0-1.1,1.5-.2,3-.2,4.6,0,1.1.1,2.2,0,3.3-.2,1.6-.2,2.6.1,4,0,1-.1,1.8-.2,2.9-.3h1.8c1.7.2,3.4.6,4.6.8l.8.1c1.5,0,2.9.2,4.3.6l2.2-.7c1.2-.2,3.1-.6,5.3-.9,1.5,0,3.1-.2,4.6-.5l2.1-.6,2,.2s-1,.8,0,1,1,.2,2.4-.6c1.4-.7-1-.8,0-1.2h.4c1.4-.1,2.8-.1,4.1,0,1.1.1,2.2,0,3.3-.2,1.6-.1,2.6.2,4,0,1.1-.1,1.8-.2,2.9-.3h.8c1.5-.1,3-.3,4.4-.7l2.1-.6,2,.2s-1,.8,0,1,1,.2,2.4-.6-1.1-.8,0-1.1c1.5-.2,3-.2,4.6,0,1.1.1,2.2,0,3.3-.2,1.6-.2,2.6.1,4,0,1-.1,1.8-.2,2.9-.3h1.8c2.2.2,4.5.8,5.3.9.9.1,4.6.1,4.7.9s2.4,1,4.1.4v1.2h3.7l3.3.3.6.1v1.2l2.8.6,1.2-.3c1.3.5,2.5,1.1,3.8,1.8.3,0,.5-.1.7-.3-.4.2-.7.3-.7.3l.6,2.3c-.1,1.4-.2,2.2-.2,2.2,0,0-.8-1.1-1,0s-.2,1.1.6,2.7.8-1.2,1.1,0c.2,1.7.2,3.4,0,5,0,1.2,0,2.4.2,3.6.2,1.8-.1,2.8,0,4.4.1,1.2.3,2,.3,3.2v2c0,.7-.1.9-.2,1.4-1.7-.5-3.6-.6-5.3-.2l-10.6-.5-2.8.7v-1.1l-.2-.1-1.5-.4h-1.8v-1.2c-.9.6-1.9.3-2-.5s-1.8-.9-2.3-1-1.6-.7-2.7-1h-.9c-.5.1-1,.2-1.5.3-.7.1-1.3-.1-2.1,0-.5.2-1.1.2-1.7.2-.6-.1-1.5-.3-1.9,0s.6.4,0,1.2q-.6.7-1,.5c-.4-.2,0-1,0-1l-.8-.2-.9.6c-.6.3-1.2.5-1.8.7-.8.2-1.5.5-2.2.9l-1.2,1c-2.1-.7-4.2-1.2-6.3-1.7v1.2l-5.2-1-.3-.3c-1.5,1-3.2,1.6-4.9,1.8,0,0,1-.6.7-1l-1.2.4c-.6.4-.8.4-.8,0v-.3l-.8.3c-.3.4-.7.7-1.1.9l-1.2.3-2.6.7c-.2-.2-.5-.4-.8-.5-.6-.2-.7.7-.7.7l1.1.5c-1.3.2-2.6.3-4,.3l-.7-1s.4-.7,0-.7c-.5-.1-1,.1-1.2.5v.4l-.2.7-3-.3-.5-.8-.8-.5-1.3-.4c-.3-.3-.5-.6-.7-1l-1.2-.2-.7.2-.3-.2-.5-.3c-.4-.2-.6.3-.6.5v.2l1.1.5c-1.3.2-2.1,1.5-3.4,1.5l-.4-.7-.2-.3s.4-.7,0-.7c-.5-.1-1,.1-1.3.5v.7l-.1.4c-.9,0-1.6.7-2.5.6h-.4l-1.3,1.4-.8-.5-1.4,1.8c-.3-.3-.5-.6-.6-.9-.6-.1-1.1,1.4-1.5,1.3l-.8-.2c0,.4-.2.4-.2.5-.2-.2-.3-.8-.4-.1-1.3-.5-4.3-1.8-4.8,0-.2.6-.2,1.3-.2,1.9h-.3l-.7-.2c-1.6,1.3-5.8-1.1-5.8-1.1,0,0,2.8-1.4-1.4-1.6-2.6-.2-5.1.4-7.4,1.6-3.1.3-6.2.1-9.2-.7-2.5-.8-5.2-.8-7.7,0l-11.7.8-2.9.8v-1.1l-.2-.1-1.6-.3h-1.8v-1.2c-.8.7-1.9.4-2-.4s-1.8-.8-2.3-.9-1.6-.7-2.6-.9h-.9c-.5.1-.9.2-1.4.3-.7.2-1.2-.1-1.9,0-.5.2-1,.2-1.6.2-.7-.2-1.5-.2-2.2,0-.5.3.7.4,0,1.2q-.7.7-1.2.6c-.5-.2,0-1,0-1l-1-.2-1.1.5c-.7.3-1.4.6-2.1.7-.9.2-1.8.5-2.6.9l-1.4,1c-2.3-.6-4.7-1.2-7.1-1.6v1.2l-6.1-.9-.7-.2c-1.8,1-3.7,1.6-5.7,1.9,0,0,1.2-.6.9-1.1l-1.4.4c-.7.4-.9.4-.9,0v-.6l-.9.3c-.4.4-.8.7-1.3.9l-1.4.3-2.9.8c-.3-.2-.6-.4-.9-.5-.7-.3-.8.7-.8.7l1.3.5c-1.5.2-3,.3-4.5.3l-.7-1s.4-.7,0-.7c-.5-.1-1.1.1-1.4.5v.4l-.2.7-3.4-.3-.5-.8-.9-.5-1.5-.3c-.3-.3-.6-.6-.7-1l-1.4-.2-.8.2-.3-.2-.6-.3c-.5-.2-.7.3-.7.5v.2l1.3.5c-1.5.2-2.3,1.6-3.9,1.6l-.5-.7-.2-.4s.4-.7,0-.7c-.5-.1-1.1.1-1.4.5v.4l-.5.3-.1.4c-1,0-1.8.8-2.8.7h-.5l-1.3,1.5-.9-.5-1.5,1.8c-.2-.2-.3-.3-.4-.6-.1-.5-.1-1.1,0-1.6l-1,.3-.8-.5s.6-.6.2-.9-.4-.3-1.1.2c-.8.5.2.9-.3,1.1s-1.4-.3-1.9-.6c-.4-.2-.9-.3-1.4-.3-.7,0-1-.5-1.6-.6-.4,0-.9-.1-1.3-.2l-.7-.3c-.6-.5-1.2-1.1-1.8-1.7-.4-.3-1.5-.8-.9-1.4s.2-1-.3-.6l.6-1-.3-.2-.1-.4v-.1l.8-.9.3-.6-.3.2.8-.7.7-.7.9-.7c-.8.7-1.7,1.2-2.7,1.4-.3.1-.6.1-.9,0h-.2c-.2.1-.5,0-.5,0l-.7-.5v-.7c.3.1.5.1.8,0l.1-.3v-.4c-.2-.1-.4-.2-.7-.3-.8-.3-.8.5-1.1.2-.4-.3-.3-1-.3-1.5.1-.4-.1-.5-.3-1s0-.8-.1-1.2c-.1-.3-.3-.5-.3-.8v-.5c.2-.4.5-.9.8-1.2l.2-.2c.1-.2.2-.9.6-1l-.6-.6c-.3-.4-.5-.9-.6-1.4,0-.4-.2-.8-.4-1.2l-.4-.7c.1-.2.2-.3.4-.4,0,0,.6.5.9.4.3-.2.3-.1-.3-.8s-.9,0-1-.5v-.1c-.1-.4.3-.8.5-1h0ZM415.8,467l-1.8-.2c-5.4.5-10.8.1-16-1,0,0,7.8-1.4-3.9-1.6-6.9-.2-13.8.4-20.6,1.6-8.5.4-17,.2-25.4-.6-7.2-.8-14.4-.7-21.5.1l-32.4.9-7.8.9v-1.1l-.6-.1-4.4-.3h-5v-1.1c-2.3.7-5.3.4-5.5-.3-.2-.8-5-.8-6.3-.9l-7.2-.9h-2.5l-3.9.3h-5.3c-1.5.2-2.9.2-4.4.2-2-.2-4.1-.2-6.1,0-1.4.3,1.9.4,0,1.1s-1.9.7-3.2.6c-1.3-.2,0-1,0-1l-2.7-.2-2.9.6c-2,.4-3.9.6-5.9.7-3,.2-5.7.6-7.2.9l-4.1,1.1-19.9-1.6v1.2l-16.6-.9-1.8-.2c-3.1.7-6.2,1.2-9.4,1.4l.8-4,.8-8.5.2-1.4c-.5-4.1-.2-8.3,1-12.3,0,0,1.4,6,1.6-3,.1-5.3-.4-10.6-1.7-15.7-.4-6.5-.2-13,.6-19.5.8-5.5.7-11-.2-16.5l-1-24.8c-.3-2-.6-4-.9-5.9h1.1l.1-.4.3-3.4v-3.8h1.1c-.7-1.8-.5-4.1.3-4.2.8-.2.7-3.8.8-4.8s.6-3.3.8-5.5v-1.9c0-1.2-.2-1.9-.3-3-.2-1.5.1-2.5,0-4.1-.2-1.1-.2-2.2-.2-3.3.2-1.6.2-3.1,0-4.7-.3-1.1-.4,1.5-1.1,0s-.7-1.5-.6-2.5c.2-1,1,0,1,0,0,0,0-.7.2-2l-.6-2.2c-.4-1.5-.6-3-.7-4.5-.2-1.8-.5-3.7-.9-5.5-.3-1.1-.7-2-1-3.1.6-4.8,1.1-9.9,1.5-15.3h-1.2l.9-12.7.2-1.4c-1.1-3.9-1.7-8-2-12,0,0,.6,2.5,1.1,1.8v-.1l-.4-2.8c-.4-1.4-.4-2,0-2h.4l-.6-2.1c-.4-.8-.7-1.7-1-2.7l-.3-3-.8-6.2c.2-.6.4-1.3.5-2,.2-1.4-.7-1.6-.7-1.6l-.5,2.7c-.2-3.1-.4-6.3-.4-9.6l1-1.6s.7.9.7,0c.1-1-.1-2.1-.6-3h-.4l-.7-.4c0-2.4,0-4.8.2-7.1l.8-1.2.5-2,.3-3.2c.2-.6.5-1.2.9-1.6.1-1.2.1-2.1.2-2.9l-.2-1.8s0-.2.2-.7.2-.7.2-1.2c.2-1-.3-1.4-.5-1.5h-.2l-.5,2.7c-.2-3.1-1.6-4.9-1.7-8.2l.7-1.1.3-.5s.7.9.7,0c.1-1-.1-2.1-.6-3l-.3-.1-.4-.2c0-2.1-.8-3.9-.7-5.9v-1.1l-1.5-2.7.5-2-1.8-3.1c.2-.6.5-1.2.9-1.6.1-1.4-1.4-2.6-1.3-3.6l.1-2c-1.6-.9,1.1-1.5-.4-1.7,0,0,.5-1.5-1.8-4.9s-2.7-3.3-2.7-3.3c0,0-.2-.5-1.6-1.4s-2.7.3-2.8,2.5-2.4.6-2.4.6c0,0-1,.5-1,3.3s-1.8-1-2.7-3.3-3.6-.8-4.3-.9-4.9-3.6-5.5-.3c-.4,2.2-.4,4.5-.1,6.7,0,0-3.1-1.7-3.7,2.7-.2,1.4-.4,2.8-.6,4.3-.7,5.3-1.1,12.4-1.4,18.6.1,1.1.3,2.2.4,3.6.4,2.3-.8,4.5-2.9,5.4l.6,2.7c0,1.6-.2,2.5-.2,2.5,0,0-.8-1.2-1,0s-.2,1.3.6,3c.7,1.8.8-1.3,1.1,0,.2,1.9.2,3.8,0,5.7-.1,1.4,0,2.7.2,4.1.2,1.9-.1,3.2,0,5,.1,1.3.3,2.2.3,3.6v2.3c-.2,2.7-.7,5.6-.8,6.7s0,5.7-.8,5.9-1,3-.3,5.2h-1.1v4.6l-.3,4.1-.1.5h-1.2l-.6,3.6.4,1.5c-.5,1.7-1.1,3.3-1.8,4.9l-1.2.6c1.3,3.4,2.4,6.8,3.1,10.3.3,1.4.7,3.9.9,6.7.1.7.1,1.3.2,1.8.1,1.2.3,2.5.5,3.7l.6,2.7c-.1,1.6-.2,2.5-.2,2.5,0,0-.5-.7-.8-.4-.1.1-.2.2-.2.4-.1.4-.1.9,0,1.3.2.6.4,1.1.6,1.7.7,1.8.8-1.3,1.1,0,.2,1.9.2,3.8,0,5.7-.1,1.4,0,2.7.2,4.1.2,2-.1,3.2,0,5,.1,1.3.3,2.2.3,3.6v2.3c-.2,2.1-.5,4.3-.7,5.7,0,.4-.1.8-.1,1,0,1.8-.2,3.6-.5,5.3.2.9.5,1.8.7,2.8.2,1.4.7,3.9.9,6.7.1,1.8.4,3.7.7,5.5l.6,2.7c-.1,1.6-.2,2.5-.2,2.5,0,0-.8-1.2-1,0s-.2,1.2.6,3,.8-1.3,1.1,0v.5c.1,1.7.1,3.5,0,5.2-.1,1.4,0,2.7.2,4.1.2,2-.1,3.2,0,5,.1,1.3.3,2.2.3,3.6v1.3c.1,1.9.4,3.7.7,5.5l.6,2.7c0,1.6-.2,2.5-.2,2.5,0,0-.8-1.2-1,0s-.2,1.2.6,3c.7,1.8.8-1.3,1.2,0,.2,1.9.2,3.8,0,5.7-.1,1.4,0,2.7.2,4.1.2,2-.1,3.2,0,5,.1,1.3.3,2.2.3,3.6v2.3c-.2,2.7-.7,5.6-.8,6.7s0,5.7-.8,5.9-1,3-.3,5.2h-.9v4.6l-.3,4.1-.1.5h-1.2l-.6,3.6.3,1.5c-.6,1.7-1.1,3.3-1.8,4.7.2,1.8.7.9,1.5,2.7.8,1.5,2,2.9,3.4,3.9-.4,2.2-.5,4.5-.4,6.7,0,4.9,0,0,.9,5.6.7,4.6,1.8,4.5,1.8,7-2.8-.1-5.6-.2-8.5-.5l-1.8-1.3s1.1-.6,0-.7c-1.2-.3-2.4-.3-3.6,0v.4l-.5.7c-2.3-.3-4.5-.8-6.7-1.6v-.7l-.6,1.4-.2.9v.2l.9-2.3-.1-.1-.2-.2-.5-.5c-.5-.3-.9-.7-1.3-1.1-.1-.4-.1-.8,0-1.2-.4-.4-.6-.6-.8-.9s-.4-.2-.6-.3v-.4l-.2-.6c-.2-.5-.6-.4-.9-.3h-.1l.5,1.4c-1.1-1-2.9-1.2-4.2-3.6l.2-1.1.1-.6s.9.4.7-.3c-.3-.9-.9-1.8-1.6-2.4h-1.5c-.8-2.1-2.2-3.7-2.6-5.4l-.2-1.1-2.1-2.2.1-2.1-2.3-3c.1-.7.4-1.3.7-1.9-.1-.9-.5-1.7-1-2.4,0-.9-.2-1.8.7-1.4.4-4.9.8-9.9,1.1-15.3l.8-5.3.7-10.1.2-1.7c-.5-4.9-.2-9.8.9-14.6,0,0,1.5,7.1,1.6-3.6.1-6.2-.5-12.5-1.8-18.6-.4-7.7-.3-15.4.4-23.1.7-6.5.6-13.1-.3-19.6l-1.2-29.4c-.3-2.4-.6-4.8-1-7.1h2l.1-.5.3-4v-4.5h1.2c-.7-2.1-.5-4.8.3-5s.7-4.5.8-5.7.6-4,.8-6.5v-2.2c0-1.4-.2-2.2-.3-3.6-.2-1.8.1-2.9,0-4.8-.2-1.3-.3-2.7-.2-4,.2-1.8.2-3.7,0-5.5-.3-1.3-.4,1.8-1.2,0s-.7-1.8-.6-2.9,1,0,1,0c0,0,0-.9.2-2.4l-.6-2.6c-.4-1.8-.6-3.5-.7-5.3-.3-2.7-.7-5.1-1-6.5s-.7-2.4-1-3.6c.6-5.7,1-11.7,1.4-18.1h-1.5l.8-15.1.2-1.7c-1.1-4.7-1.8-9.4-2.1-14.2,0,0,.6,3,1.1,2.1v-.1l-.5-3.3c-.4-1.7-.5-2.3,0-2.3h.4l-.3-2.3c-.4-1-.8-2.1-1-3.1l-.3-3.6-.8-7.4c.2-.8.3-1.5.4-2.3.2-1.8-.7-1.9-.7-1.9l-.4,3.2c-.2-3.7-.4-7.5-.5-11.4l1-1.9s.7,1,.7,0c.1-1.2-.1-2.4-.6-3.6h-.3l-.7-.4c0-2.9,0-5.7.2-8.5l.8-1.4.5-2.3.3-3.8c.1-.4.2-.5.3-.8.2.2.4.5.6.7.6.6,1.1-.2,1.1-.2l-1.3-1.1,4.9,1.8.4,1.3s-.7.5-.3.7c.5.3,1.1.3,1.7.1l.1-.3.5-.5,3.5,1.5.3,1,.8.8,1.5.8c.3.3.5.7.6,1.1l1.4.6h.9l.3.3.6.4c.3.2.6.1.8-.1,0-.1.1-.1.1-.2v-.1l-1.2-.8c1.6.2,2.9-.9,4.5-.5l.4.8.2.4s-.6.6-.1.7c.5.2,1.2.2,1.7-.2v-.4l.1-.3.2-.4c1,.2,2.1-.4,3.1-.1l.5.1,1.6-1.2.9.7,1.8-1.5c.3.3.5.6.7,1,.7.2,1.5-1.2,1.9-1.1l1,.3c.6-1.5.6,1.2.9-.3,0,0,.6.4,2.2-1.2.4.6.7,1.3.9,2.1l1.4-.7,1.2.2s-.6.8,0,1,.6.2,1.5-.6c.9-.7-.6-.8,0-1.2.9-.2,1.8-.2,2.7,0,.7.1,1.3,0,2-.2.9-.1,1.5.1,2.4,0,.6-.2,1.2-.3,1.8-.3h1.1c1.3.2,2.7.8,3.2.9.6.1,2.7,0,2.8.9s1.4,1,2.5.4v1.2h2.2l2,.3.2.1v1.2l1.8.6.7-.3c.8.6,1.6,1.2,2.3,1.9l.3,1.2c1.5-1.2,3.2-2.3,5-3.1,1-.4,2.1-.7,3.2-.9l.9-.2c.6-.1,1.2-.3,1.8-.5l1.3-.6,1.2.2s-.4.5-.2.8c0,.1.1.1.2.2.3.1.4.1.6,0,.3-.2.6-.4.8-.6.8-.7-.6-.8,0-1.1.9-.2,1.8-.2,2.7,0,.7,0,1.3,0,2-.2.9-.2,1.5.1,2.4,0,.6-.1,1.2-.2,1.8-.3h1.1c.9.2,1.8.4,2.7.7l.5.1c.9,0,1.8.2,2.6.5l1.3-.7c1-.4,2.1-.7,3.2-.9.9-.1,1.8-.3,2.6-.7l1.3-.6,1.2.2s-.6.8,0,1,.6.2,1.4-.6-.6-.8,0-1.1h.2c.8-.1,1.6-.1,2.5,0,.7.1,1.3,0,2-.2.9-.2,1.5.1,2.4,0,.6-.1,1.2-.2,1.8-.3h.5c.9-.1,1.8-.3,2.6-.7l1.3-.6,1.2.2s-.6.8,0,1,.6.2,1.4-.6-.6-.8,0-1.2c.9-.2,1.8-.2,2.7,0,.7.1,1.3,0,1.9-.2.9-.1,1.5.1,2.4,0l1.8-.3h1.1c1.3.2,2.7.8,3.2.9s2.7.1,2.8.9,1.5,1,2.5.4v1.1h2.2l2,.3.2.1v1.2l1.8.6.7-.3.1.1c-.1.8-.1,1.5,0,2.3.1.9.2,1.5.3,2.4v1.5c-.2,1.8-.8,3.8-.9,4.5-.1.8-.1,3.8-.9,4s-1,2-.4,3.6h-1.1v3.1l-.3,2.8-.1.4h-1.2l-.6,2.4.3,1c-.6,1.1-1.2,2.2-1.9,3.3l-1.2.4c1.2,2.2,2.3,4.5,3,7,.4,1.5.7,3,.9,4.5,0,.5.1.9.2,1.2.1.8.3,1.6.5,2.5l.6,1.8c-.1,1.1-.2,1.7-.2,1.7,0,0-.5-.5-.8-.3-.1.1-.2.2-.2.3-.1.3-.1.6,0,.9.2.4.4.8.6,1.1.7,1.2.8-.9,1.1,0,.2,1.3.2,2.6,0,3.8-.1.9,0,1.8.2,2.7.1,1.3-.2,2.2,0,3.3.1.9.2,1.5.3,2.4v1.5c-.2,1.3-.4,2.6-.8,3.8,0,.3-.1.5-.1.7,0,1.2-.2,2.4-.6,3.6.2.6.5,1.2.7,1.8.4,1.5.7,3,.9,4.5.1,1.3.3,2.5.7,3.7l.6,1.8c-.1,1.1-.2,1.7-.2,1.7,0,0-.8-.8-1,0s-.2.8.5,2,.9-.9,1.2,0v.4c.1,1.2.1,2.3,0,3.5-.1.9,0,1.8.2,2.8.2,1.3-.1,2.1,0,3.3.1.9.2,1.5.3,2.4v.6c.1,1.3.3,2.5.7,3.7l.6,1.8c-.1,1.1-.2,1.7-.2,1.7,0,0-.8-.8-1,0s-.2.8.6,2,.8-.9,1.1,0c.2,1.3.2,2.6,0,3.8-.1.9,0,1.8.2,2.8.2,1.3-.1,2.1,0,3.3.1.8.2,1.6.3,2.4v1.5c-.2,1.8-.8,3.8-.9,4.5-.1.8-.1,3.8-.9,4s-1,2-.4,3.5h-2v3.2l-.3,2.8-.1.4h-1.2l-.6,2.4.3,1c-.5,1.1-1.1,2.1-1.8,3.1.2,1.2.7.6,1.5,1.8.9,1.1,2,2.1,3.3,2.7-.4,1.5-.5,3-.5,4.5,0,3.3,0,0,.8,3.8s2.3,2.7,1.8,6c-.4,1.6-.4,3.4.2,5,.5.6,1,1.3,1.5,2,.3.7.8,1.4,1.4,1.9,0,0,.3,1.3,2.5,1.2,2.2-.2-.6,1.8.7,1.4,3.2,1.2,6.8,1.2,10,0,.4-.1.8-.3,1.2-.5.7,1.2,1.6,2.5,2.6,2.1.8-.3,1.5-.8,2-1.5.3.1,1,.3,1.6.5.6.5,1.3.7,2,.5.5,0,.9-.1,1.2-.4l1.4-.7c2.8-1.7,5.5-3.6,8.1-5.6l1-1.5c1.4-1.8,4.1.2,4.1.2l.6-1.4,1.1-.8s0,1,.7.7.6-.3.8-1.5-1.1-.1-.8-.8c.6-.8,1.3-1.5,2.1-2.1.6-.4,1-1,1.4-1.6.6-.8,1.3-1,1.9-1.8.3-.5.7-1,1.2-1.5l.9-.8c1.2-.8,2.7-1.4,3.1-1.8s2.2-2,2.8-1.5,1.9-.3,2.2-1.6l.8.8,1.8-1.7,1.8-1.2h.3l.8.8,1.8-.8.4-.8c1-.2,2.1-.4,3.1-.4l1,.6c.4-2,1-4,1.8-5.9.6-1.1,1.2-2.1,1.9-3,.3-.4.4-.5.2-.5-.2-.1-.3-.3-.2-.5l-.1-.7h.3c.1.3.2.5.4.7l.1.1h.1l-.2-.7c-.2-.8-.5-.7-.6-1-.1-.4.3-.5.5-.5s.2-.2.3-.5.3-.1.5-.4c.1-.2.2-.4.3-.6h.3c.3.1.5.4.7.6l.1.1c.3.1.5.3.6.7l.3-.8c.2-.3.5-.5.8-.5.2,0,.5,0,.7-.2l.5-.3.2.5s-.4.6-.4.9c.1.3,0,.3.5-.2s.2-.9.5-1.1h.1c.2,0,.5.4.6.6s0,0,.1,0-.4,0,.3.3c.5.2,1,.5,1.4.8l.1.1.2.1c.7.5,1.5.9,2.4,1.1l1.4.4c.3.3.5.6.7.9,0,0-1,0-.7.6s.3.6,1.5.9.2-1.1.9-.7c.8.6,1.5,1.4,2,2.3.4.6,1,1.1,1.6,1.6.8.7,1,1.4,1.8,2,.7.6,1,.7,1.5,1.3l.8,1c.8,1.2,1.5,2.8,1.9,3.3s2.1,2.3,1.6,3,.4,2,1.8,2.3l-.8.8,1.9,1.8,1.5,1.8.1.3-.8.9,1.1,1.8.9.4c.3,1.1.6,2.1.8,3.1.9.5.8-.2,2.1,0,1.4,0,2.7-.4,3.9-1,.7,1.1,1.6,2,2.6,2.8l.4.3c.3.6.7,1.2.9,1.8.3.9.8,1.8,1.4,2.5.3,1.1,1.4,1.8,2.5,1.5,2.3-.3-.5,2.3.7,1.9,3.2,1.5,6.9,1.4,10-.2,2.6-.8,1.8-2.5,4.5-1.3,1.5.7-1.2.9,4.1,2.4,1.6.5,1.1.9,2.9-1.1.4-1.4.9-2.7,1.6-4,1.1-.6-.4-2.7,1.1-2.3.4-3.6.8-7.4,1.2-11.4l.9-4,.7-7.5.2-1.3c-.5-3.6-.2-7.4.9-10.9,0,0,1.4,5.3,1.6-2.7.1-4.7-.5-9.4-1.8-13.9-.4-5.7-.3-11.5.4-17.2.7-4.8.6-9.8-.3-14.6l-1.1-21.9c-.3-1.8-.6-3.6-.9-5.3h1.1l.1-.4.3-3v-3.4h1.2c-.7-1.5-.5-3.6.3-3.8s.7-3.4.8-4.3.6-3,.8-4.9v-1.7c-.1-.9-.2-1.8-.3-2.6-.2-1.3.1-2.2,0-3.6-.2-1-.3-2-.2-3,.2-1.4.2-2.8,0-4.1-.3-1-.4,1.3-1.2,0s-.7-1.3-.6-2.2,1,0,1,0c0,0,0-.6.2-1.8l-.6-1.9c-.4-1.3-.6-2.6-.7-4-.3-2-.7-3.8-.9-4.9-.2-1-.7-1.8-1-2.7.6-4.3,1-8.8,1.4-13.5h-1.5l.3-4.1s.1,0,.2-.1v1.2h1l.9.3.1.1v1.1l.8.6.3-.3c.4.6.8,1.2,1.2,1.8l.2,1.2c.6-1.1,1.3-2.2,2.2-3.1.4-.4.9-.7,1.5-.9l.4-.2c.3-.1.5-.3.8-.6l.6-.6.5.2c-.1.3-.1.5,0,.8v.2c.1.1.2.1.3,0,.1-.2.2-.4.3-.6.3-.7-.3-.8,0-1.2.3-.3.9-.1,1.2,0,.4.1.4,0,.9-.2.4-.2.7.1,1,0,.2-.1.5-.2.8-.3h.5c.4.2.9.5,1.2.8l.2.1c.2,0,.9,0,1.2.5l.6-.7c.4-.4.9-.7,1.4-.9.4-.1.8-.4,1.2-.7l.6-.6.5.2s-.3.8,0,1,.3.2.6-.6c.4-.7-.3-.8,0-1.1h.1c.4-.1.8-.1,1.1,0s.4,0,.9-.2c.4-.2.7.1,1.1,0,.2-.1.5-.2.8-.3h.1c.2-.2.4-.4.5-.7l.6-.6.5.2s-.3.8,0,1,.3.2.6-.6c.4-.7-.3-.8,0-1.1s.9-.1,1.2,0,.5,0,.9-.2h.3c-.3,3.3-.5,6.7-.7,9.9l.3,4.5c.2,5.5-3.1,6.9-3.1,6.9l.5,3.4-.3,3.2s-.7-1.6-1,0c-.3,1.3-.1,2.7.4,3.9.7,2.3.9-1.7,1.2,0,.1,2.4.1,4.9-.2,7.3-.1,1.8-.1,3.6,0,5.3l-.1,6.4.2,4.6-.1,2.9-1.1,8.6c-.1,1.6-.3,7.3-1.1,7.5s-1.1,3.8-.5,6.6h-1.1l-.1,5.9-.5,5.3-.1.7h-1.1l-.7,4.5.3,2c-.7,2.2-1.3,4.4-2,6.2l-1.2.7c1.2,4.4,2.1,8.9,2.7,13.4.2,1.8.5,5,.7,8.6l.1,2.4.4,4.7.5,3.5-.3,3.2s-.5-1-.8-.5c-.1.2-.2.3-.2.5-.1.6-.2,1.2-.1,1.8.1.7.3,1.5.6,2.2.7,2.3.9-1.7,1.1,0,.2,2.4.1,4.9-.1,7.3-.1,1.8-.1,3.6,0,5.3l-.1,6.4.2,4.7-.1,2.9-.9,7.3-.2,1.3c-.1,2.3-.3,4.7-.6,7l.7,3.6c.2,1.9.6,5.1.9,8.7.1,2.4.4,4.8.7,7.1l.6,3.5-.2,3.2s-.8-1.6-1,0c-.2,1.3,0,2.7.6,3.9.7,2.3.8-1.7,1.2,0v.7c.1,2.2.1,4.5,0,6.7-.1,1.8,0,3.6.2,5.3v6.4l.3,4.7v1.1c.1,2.4.4,4.8.7,7.1l.6,3.4-.2,3.2s-.8-1.6-1,0c-.2,1.3,0,2.7.6,3.9.7,2.3.8-1.8,1.1,0,.2,2.4.2,4.9,0,7.3-.1,1.8,0,3.6.2,5.3v6.4l.3,4.6v3l-.9,8.7c-.1,1.6,0,7.3-.9,7.6s-1,3.9-.3,6.7h-1.2v6l-.2,4.9-.1.7h-1.2l-.6,4.6.3,2c-.6,2.2-1.1,4.3-1.8,6.1.2,2.3.7,1.1,1.5,3.4.7,1.9,1.8,3.7,3.3,5.1-.4,2.9-.5,5.8-.4,8.7,0,5.9,0,.9.7,6.1l-8.7-.6Z"/>
</svg>