<?xml version="1.0" encoding="UTF-8"?>
<svg id="expand" xmlns="http://www.w3.org/2000/svg" version="1.1" viewBox="0 0 512 512">
  <!-- Generator: Adobe Illustrator 29.6.1, SVG Export Plug-In . SVG Version: 2.1.1 Build 9)  -->
  <defs>
    <style>
      .st0 {
        fill: #fff;
      }
    </style>
  </defs>
  <g>
    <g>
      <path class="st0" d="M125.73,482.56c-2.24-.35-3.77-2.46-3.42-4.7.2-1.28.99-2.38,2.14-2.99l45.25-24.47-65.22,25.12c-2.12.82-4.49-.23-5.31-2.35-.78-2.02.14-4.3,2.11-5.21l16-7.46-24.24,9.32c-2.11.82-4.5-.23-5.32-2.34-.79-2.04.16-4.35,2.16-5.24l4.62-2.08-10.33,3.98c-2.12.8-4.49-.27-5.3-2.39-.76-2,.15-4.25,2.08-5.16l46.02-21.56-53.07,20.41c-2.13.78-4.49-.31-5.27-2.43-.72-1.96.14-4.15,2.01-5.09l73.82-35.59-80.68,31.03c-2.11.84-4.5-.19-5.33-2.3-.81-2.03.12-4.34,2.11-5.25l74.58-35.14-78.48,30.19c-2.12.81-4.49-.25-5.3-2.37-.75-1.96.1-4.17,1.97-5.12l71.95-36.41-73.2,28.14c-2.12.81-4.49-.25-5.3-2.37-.75-1.96.1-4.17,1.97-5.12l60.81-30.76-57.87,22.27c-2.12.81-4.49-.25-5.3-2.37-.75-1.96.1-4.17,1.97-5.12l43.46-22-36.52,14.04c-2.13.79-4.49-.29-5.29-2.41-.72-1.92.09-4.08,1.9-5.05l28.76-15.19-16,6.15c-2.12.81-4.49-.26-5.3-2.38-.72-1.9.05-4.03,1.81-5.03l16.99-9.53c-.51-.44-.9-1-1.13-1.63-.81-2.11.24-4.48,2.35-5.3l35.67-13.71c2.13-.79,4.49.29,5.28,2.42.7,1.88-.06,3.99-1.8,4.99l-3.7,2.07,27.36-10.51c2.12-.81,4.49.24,5.31,2.36.75,1.94-.07,4.13-1.91,5.1l-28.78,15.2,47.67-18.33c2.13-.78,4.49.31,5.27,2.44.71,1.93-.12,4.08-1.94,5.04l-43.45,21.99,57.94-22.28c2.12-.81,4.49.25,5.3,2.37.75,1.96-.1,4.17-1.97,5.12l-60.81,30.76,73.15-28.12c2.12-.81,4.49.25,5.3,2.37.75,1.96-.1,4.17-1.97,5.12l-71.93,36.39,107.8-41.45c2.13-.79,4.49.29,5.28,2.42.74,1.98-.15,4.2-2.06,5.13l-74.58,35.13,68.81-26.46c2.13-.78,4.49.31,5.27,2.43.72,1.96-.14,4.15-2.01,5.09l-73.82,35.61,67.87-26.1c2.12-.8,4.49.27,5.3,2.39.76,2-.15,4.24-2.08,5.16l-46.02,21.57,40.68-15.65c2.11-.82,4.5.23,5.32,2.34.79,2.04-.16,4.35-2.16,5.24l-4.63,2.08c2.14-.75,4.48.38,5.23,2.52.69,1.97-.21,4.14-2.09,5.05l-16.05,7.45,10.96-4.22c2.12-.81,4.49.24,5.31,2.36.74,1.93-.06,4.1-1.88,5.09l-45.24,24.47,34.39-13.22c2.11-.83,4.5.21,5.32,2.32.76,1.95-.06,4.16-1.91,5.13l-15.02,8.05c2.27.1,4.02,2.02,3.92,4.28-.07,1.63-1.11,3.07-2.63,3.66l-56.96,21.91c-2.12.8-4.49-.27-5.29-2.39-.72-1.92.08-4.08,1.88-5.06l12.61-6.78-33.05,12.71c-.67.25-1.4.31-2.11.19h0v.02Z"/>
      <path class="st0" d="M288.79,344.05c-2.24-.35-3.77-2.45-3.42-4.69.18-1.18.87-2.22,1.89-2.85l12.23-7.6-17.59,6.76c-2.13.79-4.49-.3-5.28-2.42-.69-1.86.04-3.94,1.74-4.96l29.61-17.21-13.91,5.35c-2.12.81-4.49-.25-5.31-2.37-.72-1.89.03-4.02,1.78-5.03l27.09-15.58c-2.27-.12-4.01-2.05-3.89-4.31.07-1.39.84-2.65,2.05-3.35l9.7-5.61c-2.18-.62-3.45-2.89-2.82-5.08.25-.88.79-1.65,1.53-2.19l21.23-15.49-8.49,3.25c-2.12.81-4.49-.25-5.3-2.37-.64-1.67-.12-3.56,1.28-4.68l18.68-14.78-9.47,3.64c-2.1.86-4.5-.14-5.36-2.24-.75-1.83-.09-3.94,1.57-5.01l6-4.1-.27.1c-2.11.82-4.5-.22-5.32-2.34-.65-1.67-.15-3.56,1.25-4.69l11.8-9.56-7.25,2.78c-2.12.8-4.49-.27-5.3-2.39-.64-1.7-.09-3.63,1.36-4.73l5.84-4.38-3.44,1.32c-2.12.82-4.5-.23-5.32-2.34-.62-1.59-.19-3.4,1.09-4.54l10.59-9.53-10.89,4.19c-2.12.81-4.49-.26-5.3-2.38-.6-1.57-.18-3.35,1.06-4.49l10.15-9.21-12.96,4.98c-2.12.81-4.49-.26-5.3-2.38-.61-1.61-.16-3.44,1.15-4.57l9.37-8.06-14.11,5.43c-2.12.81-4.49-.24-5.31-2.36-.67-1.75-.08-3.73,1.45-4.82l4.28-3.04-8.59,3.3c-2.12.81-4.49-.26-5.3-2.38-.64-1.69-.11-3.59,1.32-4.7l9.64-7.4-16.76,6.45c-2.13.77-4.49-.34-5.26-2.47-.61-1.7-.05-3.59,1.39-4.68l10.55-7.69-18.41,7.08c-2.12.81-4.49-.26-5.3-2.38-.62-1.64-.14-3.49,1.21-4.62l17.55-14.52-28.18,10.83c-2.08.9-4.5-.05-5.4-2.13s.05-4.5,2.13-5.4c.11-.05.21-.09.32-.12l51.62-19.85c2.12-.82,4.49.24,5.31,2.35.64,1.65.15,3.52-1.22,4.65l-17.54,14.51,23.91-9.21c2.13-.77,4.49.34,5.26,2.47.61,1.7.05,3.59-1.39,4.68l-10.55,7.68,14.17-5.46c2.12-.81,4.49.26,5.3,2.38.64,1.69.11,3.59-1.32,4.7l-9.59,7.42,12.72-4.89c2.12-.81,4.49.24,5.31,2.36.67,1.75.08,3.73-1.45,4.82l-4.28,3.03,5.72-2.2c2.12-.81,4.49.26,5.3,2.38.61,1.61.16,3.44-1.15,4.57l-9.38,8.08,11.23-4.33c2.12-.82,4.49.24,5.31,2.35.61,1.58.19,3.37-1.06,4.51l-10.15,9.21,11.21-4.31c1.85-.73,3.95-.02,4.97,1.68,1.04,1.69.73,3.88-.75,5.21l-10.59,9.52,10.31-3.96c2.11-.82,4.5.22,5.32,2.33.67,1.73.11,3.69-1.38,4.79l-5.84,4.38,3.84-1.48c2.11-.82,4.5.22,5.32,2.34.65,1.67.14,3.57-1.25,4.69l-11.81,9.6,8.85-3.39c2.1-.86,4.5.14,5.36,2.24.75,1.83.09,3.94-1.57,5.01l-6,4.1,1.92-.74c2.12-.81,4.49.25,5.3,2.37.64,1.67.12,3.57-1.28,4.68l-18.69,14.78,12.24-4.72c2.14-.76,4.49.36,5.25,2.5.6,1.68.04,3.56-1.38,4.64l-21.22,15.48,12.46-4.79c2.12-.81,4.49.26,5.3,2.38.72,1.88-.03,4-1.77,5.01l-6.53,3.78c2.27-.05,4.15,1.75,4.19,4.02.03,1.51-.77,2.91-2.08,3.66l-25.12,14.45,12.58-4.84c2.13-.79,4.49.3,5.28,2.42.69,1.86-.04,3.94-1.74,4.96l-29.59,17.19,9.92-3.82c2.12-.81,4.49.25,5.3,2.37.7,1.83,0,3.91-1.66,4.95l-26.16,16.28c.2.28.37.58.49.91.81,2.11-.24,4.48-2.35,5.3l-21.67,8.33c-.67.26-1.4.35-2.12.24h-.01Z"/>
      <path class="st0" d="M205.16,360.86c-2.24-.35-3.77-2.46-3.42-4.7.18-1.15.84-2.17,1.82-2.81l4.23-2.75c-1.62.16-3.17-.65-3.96-2.08-1-1.78-.54-4.02,1.07-5.26l14.97-11.54-8.57,3.3c-2.12.82-4.49-.24-5.31-2.35-.64-1.65-.15-3.52,1.22-4.65l18.25-15.06-11.36,4.36c-2.1.86-4.5-.14-5.36-2.24-.75-1.83-.09-3.94,1.57-5.01l7.54-5.14-1.91.73c-2.12.8-4.49-.27-5.29-2.39-.61-1.63-.14-3.46,1.19-4.58l18.7-15.62-11.74,4.52c-2.12.81-4.49-.25-5.31-2.37-.62-1.63-.15-3.48,1.18-4.61l19.13-16.11-12.1,4.65c-2.12.81-4.49-.26-5.3-2.38-.64-1.68-.12-3.57,1.29-4.69l15.88-12.47-9.36,3.6c-2.13.77-4.49-.34-5.26-2.47-.61-1.7-.05-3.59,1.39-4.68l11.91-8.68-5.88,2.26c-2.12.81-4.49-.24-5.31-2.36-.66-1.72-.1-3.66,1.37-4.76l13.55-10.16-7.33,2.81c-2.12.82-4.49-.23-5.31-2.35-.7-1.8-.05-3.83,1.55-4.9l6.41-4.31-.88.33c-2.12.81-4.49-.24-5.31-2.36-.66-1.72-.1-3.66,1.37-4.76l13.55-10.17-7.35,2.82c-2.13.78-4.49-.32-5.27-2.45-.63-1.71-.05-3.62,1.41-4.71l11.45-8.27-5.47,2.11c-2.13.78-4.49-.32-5.27-2.45-.63-1.71-.05-3.62,1.41-4.71l11.34-8.19-5.36,2.06c-2.12.8-4.49-.28-5.29-2.4-.61-1.63-.13-3.47,1.2-4.59l18.17-14.99-11.31,4.34c-2.04.79-4.33-.16-5.23-2.15-.89-1.99-.08-4.33,1.86-5.33l15.9-8.24-10.71,4.13c-2.12.8-4.49-.27-5.29-2.39-.73-1.95.1-4.14,1.95-5.1l4.53-2.33c-2.2.57-4.44-.75-5.01-2.95-.48-1.84.37-3.76,2.05-4.66l3.29-1.69c-1.54-.05-2.92-.95-3.61-2.32-.93-1.93-.23-4.25,1.62-5.33l15.65-9.25-10.13,3.9c-2.12.81-4.49-.26-5.3-2.38-.69-1.82,0-3.88,1.64-4.93l15.17-9.56-9.41,3.61c-2.12.81-4.49-.25-5.3-2.37-.64-1.67-.12-3.57,1.28-4.68l21.43-16.92-14.51,5.57c-2.13.79-4.49-.29-5.28-2.42-.64-1.72-.06-3.66,1.42-4.74l12.2-8.82-6.2,2.39c-2.11.83-4.5-.2-5.33-2.31-.71-1.81-.06-3.87,1.56-4.94l6.52-4.41-1,.38c-2.12.8-4.49-.27-5.29-2.39-.66-1.73-.07-3.69,1.44-4.78l9.09-6.5-3.27,1.25c-2.13.79-4.49-.29-5.28-2.41-.46-1.23-.3-2.61.43-3.71l6.21-9.18c-2.27-.06-4.06-1.94-4-4.21.04-1.66,1.08-3.14,2.64-3.73l10.33-3.95c2.12-.8,4.49.28,5.29,2.41.46,1.24.3,2.62-.43,3.72l-5.89,8.68,21.16-8.14c2.12-.81,4.49.24,5.31,2.36.67,1.75.08,3.73-1.45,4.82l-9.09,6.51,4.82-1.85c2.11-.83,4.5.2,5.33,2.31.71,1.81.06,3.87-1.56,4.94l-6.57,4.4,2.03-.77c2.13-.79,4.49.29,5.28,2.42.64,1.72.06,3.66-1.42,4.74l-12.2,8.8,10.06-3.84c2.12-.82,4.49.23,5.31,2.35.65,1.68.13,3.59-1.29,4.71l-21.44,16.91,23.27-8.9c2.13-.79,4.49.29,5.28,2.42.67,1.8,0,3.83-1.62,4.88l-15.14,9.51,17.53-6.71c2.12-.8,4.49.27,5.29,2.39.7,1.86-.03,3.96-1.74,4.98l-15.69,9.23,18.84-7.25c2.12-.81,4.49.24,5.31,2.36.75,1.96-.09,4.16-1.95,5.13l-.81.42,2.87-1.1c2.12-.8,4.49.27,5.29,2.39.73,1.95-.1,4.14-1.95,5.1l-4.41,2.22,6.99-2.68c2.12-.81,4.49.26,5.3,2.38.74,1.94-.09,4.13-1.93,5.1l-44.98,23.31c.9,1.72.47,3.83-1.02,5.07l-18.17,15.01,11.32-4.34c2.13-.78,4.49.32,5.27,2.45.63,1.71.05,3.62-1.41,4.71l-11.32,8.19,5.32-2.06c2.13-.78,4.49.32,5.27,2.45.63,1.71.05,3.62-1.41,4.71l-11.41,8.3,5.49-2.1c2.12-.8,4.49.27,5.3,2.39.64,1.7.09,3.63-1.36,4.73l-13.57,10.18,7.35-2.82c2.12-.82,4.49.23,5.31,2.35.7,1.8.05,3.83-1.55,4.9l-6.41,4.3.88-.33c2.12-.8,4.49.27,5.3,2.39.64,1.7.09,3.63-1.36,4.73l-13.55,10.17,7.33-2.82c2.13-.77,4.49.34,5.26,2.47.61,1.7.05,3.59-1.39,4.68l-11.9,8.69,5.87-2.26c2.12-.81,4.49.26,5.3,2.38.64,1.68.12,3.57-1.29,4.69l-15.88,12.47,9.36-3.6c2.12-.81,4.49.25,5.31,2.37.62,1.63.15,3.48-1.18,4.61l-19.13,16.11,12.1-4.65c2.12-.81,4.49.25,5.3,2.37.62,1.64.14,3.49-1.2,4.61l-18.71,15.62,11.75-4.51c2.1-.85,4.5.17,5.34,2.28.73,1.82.08,3.9-1.56,4.97l-7.53,5.13,1.91-.73c2.12-.82,4.49.24,5.31,2.35.64,1.65.15,3.52-1.22,4.65l-18.23,15.04,11.36-4.36c2.12-.81,4.49.26,5.3,2.38.64,1.69.11,3.59-1.32,4.7l-14.96,11.52,8.56-3.28c2.14-.75,4.48.38,5.23,2.52.61,1.73,0,3.66-1.52,4.72l-4.24,2.76c2.26-.21,4.26,1.46,4.47,3.71.17,1.83-.9,3.54-2.61,4.21l-34.89,13.42c-.67.28-1.4.38-2.12.27h0l-.04-.04Z"/>
    </g>
    <path class="st0" d="M240.46,384.53l37.7-238.94c72.19,29.03,74.14,117.96,14.62,162.06-8.02,6-21.05,9.99-19.34,22.4,7.78,26.26,39.76,6.87,53.23-4.19,114.18-103.85,28.34-169.76-30.14-264.52-4.63-22.87,10.34-46.29-25.26-45.1-35.2-22.65-55.55,292.51-70.54,332.96-49.1-36.28-143.21-24.43-156.56,43.4-4.8,122.92,207.77,118.28,196.3-8.07h-.01ZM222.81,420.08c-12.36,70.8-111.07,71.36-150.42,24.33-63.32-81.96,68.21-148.1,127.03-84.41,2.4,2.16,11.31,2.12,11.96-1.97,17.47-110.73,34.94-221.47,52.41-332.2-1.59-8.98,11.76-2.81,16.05-2.2,6.7,3.13,3.78,10.33,3.04,15.71,6.94,101.54,166.44,140.46,41.18,278.38-8.04,7.49-17.22,13.68-27.18,18.33-17.15,3.66-12.21-19.98.72-22.67,74.74-56.83,64.91-137.27-18.13-178.62-2.4-2.17-11.31-2.14-11.95,1.96-15.08,94.43-29.52,188.96-44.7,283.36h0Z"/>
  </g>
  <path class="st0" d="M414.66,376.9c.8-.6,1.4-1.3,2.1-2.1.9-1.1,1.8-1.5,2.6-2.5.6-.7,1-1.3,1.7-2l1.2-1.1c1.5-1.2,3.4-2.2,4.1-2.7s3-2.8,3.6-2.3c.6.4,2.2-.8,2.9-2.3l.7.8,2.4-2.3,2.3-1.8.4-.2.8.8,2.3-1.4.6-1c1.2-.4,2.4-.8,3.6-1.1.8-1.1,0-.9.5-2.3.3-1.4.3-2.8,0-4.2,1.4-.8,2.7-1.9,3.8-3,2.5-2.5,0-.1,2.5-3.5,2.4-3.4.6-3.5,3.5-5.5,1.5-1,2.8-2.3,3.7-3.8.1-.8.4-1.7.7-2.5.3-.7.5-1.5.6-2.3,0,0,.8-1.2-.7-2.5s1.7-.9.7-1.5c-1.1-3-3.4-5.3-6.4-6.5-2.1-1.3-2.6.2-3.6-2.3-.5-1.4,1.3.3-1.1-4.1-.7-1.3-.1-1.3-2.5-1.3-1.1.5-2.2.9-3.4,1.2-1.1-.4-1.3,1.7-2.1.5l-7.5,5.5-2.9,1.6-4.9,3.6-.8.6c-.9,2.5-7,5.3-7,5.3,0,0,2.2-3.8-2.6.4-2.9,2.5-5.3,5.4-7.2,8.7-3.2,3.4-6.7,6.4-10.6,9-3.3,2.1-6.3,4.8-8.6,8l-12.5,12.5-2.6,3.4-.7-.8-.3.1-2,1.4-.1.1-2.2-.8c-2.1-2.7-4.4-5.5-6.9-8.4l-.8.8-6.1-6.7-.6-.8c-2.7-1.2-5.2-2.6-7.5-4.4,0,0,1.6.8,1.6.1h.1l-1.8-1.1c-1-.4-1.3-.6-1-.9l.2-.3-1.2-.7c-.7-.1-1.4-.3-2-.6l-1.8-1.2-3.7-2.4c-.3-.5-.6-.9-1-1.3-.2-.4-.7-.6-1.1-.4-.1,0-.1.1-.2.1l1.1,1.6c-1.8-1.3-3.5-2.7-5.3-4.3l-.2-1.5s.9,0,.4-.5c-.5-.6-1.2-.9-1.9-1l-.2.2-.7.3-3.6-3.5-.1-1.1-.7-1.3-1.5-1.7c-.2-.4-.3-.9-.3-1.4l-1.4-1.5-1-.7-.3-.5-.5-.7c-.4-.6-.9-.5-1.1-.3l-.1.1,1.1,1.6c-1.8-1.3-3.4-1.1-5-2.6l-.1-.9v-.5s.8-.1.5-.5c-.4-.6-1.1-.9-1.8-1l-.2.2-.3.1-.4.2c-.9-.9-2.3-1.2-3.3-2.2l-.5-.5-2.2-.2-.6-1.2-2.7-.3c-.2-.4-.2-.9-.2-1.3-.6-.7-2.2-.3-2.5-.7l-.8-1c-1.5.6,0-1.4-1.1-.5,0,0-.3-1-3.5-1.1s-3.4.2-3.4.2c-.6,0-1.2.1-1.8.4-.9.2-1.5,1-1.3,1.9.1.4.3.8.6,1,1.1,1.1-1.3,1.8-1.3,1.8,0,0-.4.9,1,2.2s-1.6.6-3.5,0-2.9,1.9-3.4,2.2c-.5.4-5.1,1.3-3.8,3.3.9,1.3,2.1,2.5,3.4,3.4-1.2.3-1.9,1.6-1.6,2.8.1.3.3.7.5.9l1.9,2.6c2.3,3.1,5.9,6.9,9.1,10.3l2.1,1.5c1.5,1.1,1.9,3.1,1.2,4.8l1.8.9,1.2,1.3s-1.1,0-.6.7c.6.7.5.7,1.9,1s-.2-1.2.7-.8c1.1.7,2.1,1.6,3,2.6.7.7,1.4,1.2,2.2,1.7,1.1.8,1.6,1.6,2.6,2.3.7.5,1.3.8,2,1.5l1.2,1.1c1.3,1.4,2.4,3.1,3,3.7.5.6,2.9,2.7,2.5,3.3s.9,2.1,2.5,2.6l-.7.8,2.4,2.1,1.9,2.1.2.3-.7.8,1.4,2.1,1,.5c.5,1.2,1,2.3,1.4,3.5l-.4,1.1c2.5.7,4.9,1.6,7.2,2.7,1.4.8,2.7,1.6,4,2.5l1.1.7c.7.5,1.4,1,2.2,1.4l1.7.9,1.1,1.3s-.7,0-.7.3c0,.1,0,.2.1.3.2.3.4.5.6.7.3.1.5.2.8.2l-.2.5c-2.9,1.9-6,3.9-9.1,6.2l.7.8-7.4,5.4-.9.5c-1.5,2.5-3.2,4.9-5.3,7,0,0,1-1.6.3-1.6l-1.3,1.6c-.5.9-.8,1.2-1,.9l-.3-.3-.9,1.1c-.2.7-.5,1.3-.8,1.9l-1.5,1.6-2.9,3.4c-.5.2-.9.4-1.3.6-.9.5-.5,1.2-.5,1.2l1.7-.9c-1.6,1.6-3.3,3.3-5,4.7h-1s0-.9-.4-.5c-.6.4-1.1,1.1-1.3,1.8l.2.2.2.7-4,3.3h-1.3l-1.4.5-1.9,1.3c-.5.1-1,.1-1.4,0l-1.7,1.2-.7,1-.5.2-.8.4c-.7.4-.6.8-.5,1.1v.1l1.7-.9c-1.6,1.6-1.7,3.4-3.5,4.9h-1.5s0-.9-.4-.5c-.6.4-1.1,1-1.3,1.8l.2.3.1.3.1.4c-1.2.9-1.6,2.3-2.8,3.3l-.6.5-.6,2.2-1.4.6-.7,2.7c-.5.1-1,.1-1.4,0-.9.6-.6,2.2-1.1,2.5l-1.2.8c.5,1.6-1.5-.1-.7,1.1,0,0-1.1.3-1.6,3.5s-.2,3.4-.2,3.4c-.1.6,0,1.2.2,1.8.3,1.4,1.8,1.8,3,.8,1.3-1,1.7,1.4,1.7,1.4,0,0,.9.5,2.4-.8s.4,1.6-.3,3.4,1.6,2.9,2,3.4.9,5,3,4c1.4-.7,2.7-1.8,3.8-3,.3,1.3,1.6,2,2.8,1.8.3-.1.6-.2.9-.4l2.8-1.6c3.8-2.4,7.5-4.9,11.1-7.7l1.6-1.9c1.2-1.3,3.2-1.5,4.7-.5l1.1-1.6,1.5-1s-.2,1.1.6.7c.53-.33.97-.93,1.3-1.8.5-1.4-1.2,0-.7-.8.9-1,2-1.9,3.1-2.7.8-.6,1.5-1.3,2.1-2,1-1,1.8-1.4,2.7-2.4.7-.7,1.1-1.2,1.8-1.9l1.3-1c1.6-1.1,3.5-2.1,4.2-2.6s3.1-2.6,3.7-2.2,2.3-.7,3-2.2l.7.8,2.5-2.2,2.4-1.7.4-.2.7.8,2.3-1.3.6-1c1.2-.4,2.5-.8,3.8-1.1l1,.5c1-2.5,2.3-4.8,3.7-7.1.6-.8,1.7-2.3,3.1-3.8l.9-1c.6-.7,1.1-1.4,1.6-2.1l1.1-1.6,1.5-1.1s-.1.7.3.7c.1.1.3.1.5,0,.3-.1.6-.3.8-.6.2-.4.4-.8.5-1.2.5-1.4-1.2,0-.7-.8.9-1.1,1.9-2,3-2.8.6-.5,1.1-1,1.6-1.6-.1.1-.3.2,0,.4.33.47.97.83,1.9,1.1,1.4.4-.1-1.2.7-.8l.3.2c.9.7,1.8,1.6,2.6,2.5.7.7,1.4,1.3,2.2,1.9,1.1.8,1.5,1.6,2.5,2.4.7.6,1.3.9,2,1.6l.2.2.3.2c1,.8,2.1,1.6,3.3,2.2l1.6.9,1.1,1.4s-1.1-.1-.6.6.5.7,1.9,1.1c1.3.4-.1-1.2.7-.8,1.1.8,2,1.7,2.8,2.8.6.7,1.4,1.3,2.1,1.9,1.1.8,1.5,1.6,2.5,2.4.7.5,1.3,1.1,2,1.6l1.1,1.2c1.2,1.4,2.3,3.3,2.8,3.9s2.8,2.8,2.3,3.5c-.4.6.8,2.1,2.3,2.8l-.7.7,2.3,2.3,1.8,2.2.2.3-.8.8,1.3,2.1,1,.6c.4,1.1.8,2.3,1.1,3.5,1,.7.9,0,2.2.4,1.4.3,2.8.2,4.1-.2.8,1.3,1.8,2.6,3,3.6,2.4,2.4,0,0,3.3,2.2s3.4.5,5.4,3.3c.9,1.5,2.2,2.7,3.7,3.6.8.1,1.6.3,2.4.6.7.3,1.5.5,2.3.6,0,0,1.2.8,2.5-.7s.9,1.6,1.5.6c3-1.1,5.3-3.4,6.5-6.4,1.3-2.1-.2-2.6,2.3-3.6,1.4-.6-.3,1.3,4.1-1.2,1.3-.7,1.3-.2,1.4-2.5-.5-1-.9-2.1-1.1-3.3.4-1.1-1.7-1.3-.5-2.1-1.6-2.4-3.4-4.9-5.4-7.4l-1.6-2.8-3.6-4.9-.6-.8c-2.5-.9-5.4-6.9-5.4-6.9,0,0,3.8,2.1-.4-2.6-2.5-2.8-5.5-5.1-8.8-6.8-3.5-3-6.6-6.4-9.3-10.1-2.2-3.2-5-6-8.3-8.1l-13-11.6-3.6-2.3.7-.8-.1-.3-1.5-1.9-1.3-1.2c.5-.4,1-.8,1.4-1.2.8-.6,1.5-1.3,2.1-2.1,1-1.1,1.8-1.5,2.6-2.4.6-.7,1-1.3,1.7-2l.2-.2.3-.3c.9-1,1.8-2,2.5-3.2l1.1-1.6,1.4-1.1s-.2,1.1.6.6.8-.5,1.3-1.8c.5-1.4-1.2,0-.7-.8.6-.7,1.6-1.7,2.7-2.5h0ZM372.16,421.4l.2-.2.2.2h-.4Z"/>
</svg>